<?xml version="1.0" standalone="no"?>
<!DOCTYPE svg PUBLIC "-//W3C//DTD SVG 20010904//EN"
 "http://www.w3.org/TR/2001/REC-SVG-20010904/DTD/svg10.dtd">
<svg version="1.0" xmlns="http://www.w3.org/2000/svg"
 width="1024.000000pt" height="1024.000000pt" viewBox="0 0 1024.000000 1024.000000"
 preserveAspectRatio="xMidYMid meet">
<metadata>
Created by potrace 1.14, written by Peter Selinger 2001-2017
</metadata>
<g transform="translate(0.000000,1024.000000) scale(0.100000,-0.100000)"
fill="#000000" stroke="none">
<path d="M0 5120 l0 -5120 5120 0 5120 0 0 5120 0 5120 -5120 0 -5120 0 0
-5120z m4907 3534 c18 -14 33 -30 33 -37 0 -7 -33 -30 -72 -52 -51 -28 -105
-73 -183 -150 -105 -105 -137 -151 -175 -249 -9 -25 -11 -26 -109 -26 -131 0
-227 -29 -331 -101 -41 -28 -86 -61 -99 -72 -45 -41 -119 -167 -146 -248 -32
-95 -36 -221 -11 -336 9 -40 13 -79 10 -87 -5 -13 -82 -16 -577 -18 -567 -3
-648 -1 -668 19 -16 16 20 78 109 190 336 420 738 719 1275 950 178 76 298
115 515 169 325 81 379 87 429 48z m889 -9 c129 -21 390 -89 514 -135 388
-142 845 -420 1113 -679 86 -82 254 -274 336 -383 76 -101 89 -141 50 -153
-26 -8 -1185 -9 -1198 -1 -5 4 -3 27 5 59 37 137 35 291 -7 402 -48 129 -174
272 -293 332 -74 37 -138 53 -251 60 l-100 6 -37 76 c-20 42 -58 103 -85 135
-55 68 -166 156 -235 188 -54 24 -59 41 -27 82 17 22 28 26 72 26 29 0 93 -7
143 -15z m-381 -187 c202 -66 362 -236 410 -435 20 -84 11 -81 151 -57 109 19
168 10 262 -37 66 -33 149 -114 181 -177 92 -180 54 -398 -98 -564 -104 -114
-247 -151 -403 -106 -46 13 -68 -1 -68 -43 0 -41 29 -65 93 -79 37 -7 56 -16
59 -28 2 -9 2 -95 0 -191 l-4 -173 -102 8 c-55 4 -401 7 -769 6 l-667 -1 2
167 3 167 65 23 c77 27 120 64 120 103 0 34 -26 63 -49 54 -9 -4 -54 -14 -100
-22 -106 -19 -177 -8 -281 43 -135 67 -214 177 -247 343 -29 144 3 261 99 367
90 98 238 161 348 148 62 -8 101 -20 111 -36 4 -6 24 -11 45 -12 l38 -1 26 95
c34 123 49 157 101 225 147 195 443 289 674 213z m-1450 -1368 c77 -74 158
-125 239 -151 l73 -24 7 -104 c3 -57 6 -133 6 -168 l0 -63 -134 0 -133 0 -17
44 c-23 61 -154 192 -231 233 -87 46 -177 73 -239 73 -96 0 -115 -36 -116
-227 0 -56 -2 -107 -5 -115 -4 -9 -28 -13 -91 -12 l-85 1 -45 61 c-85 114
-184 158 -341 150 -125 -7 -199 -43 -286 -140 l-61 -68 -147 0 c-168 0 -200 7
-192 42 18 76 217 442 273 503 19 20 29 20 747 17 l728 -4 50 -48z m4033 4
c40 -59 242 -458 242 -479 0 -21 -32 -23 -348 -29 l-282 -6 -63 46 c-73 54
-102 70 -182 100 -39 14 -59 27 -57 35 20 79 14 115 -29 163 -62 71 -174 85
-274 35 -68 -35 -98 -80 -92 -139 3 -25 8 -52 12 -61 5 -13 -3 -20 -32 -29
-53 -17 -139 -65 -197 -112 l-49 -38 -231 2 -231 3 -3 161 -2 161 61 23 c66
25 189 111 251 176 l37 39 718 -1 717 -1 34 -49z m-832 -269 c26 -40 13 -55
-51 -55 -54 0 -55 1 -55 28 0 37 17 52 57 52 24 0 37 -7 49 -25z m-3489 -71
c52 -25 112 -83 168 -164 l30 -43 9 -271 c10 -296 11 -625 2 -662 -4 -13 -45
-54 -99 -97 -98 -78 -151 -133 -162 -166 -5 -18 -41 -39 -50 -29 -3 3 -8 962
-6 1292 l1 178 27 -7 c15 -3 51 -18 80 -31z m-772 -156 c-1 -27 -2 -185 -3
-353 l-2 -305 -34 0 -34 0 -4 83 c-2 45 -5 202 -6 349 -3 288 -5 279 53 275
29 -2 30 -4 30 -49z m4340 17 c75 -20 179 -81 237 -139 52 -51 120 -161 142
-228 61 -184 4 -417 -136 -556 -232 -232 -636 -187 -815 90 -111 172 -119 360
-23 554 46 95 120 170 223 228 116 65 248 83 372 51z m-4190 -21 c14 -9 34
-31 45 -48 19 -31 20 -49 19 -371 l-2 -338 -51 -52 c-36 -37 -68 -59 -111 -75
l-60 -22 -65 21 c-92 30 -140 60 -175 109 l-30 44 4 326 3 326 32 38 c17 21
34 38 37 38 16 0 19 -67 19 -411 0 -405 -3 -388 65 -391 42 -1 52 9 61 65 9
50 34 46 49 -7 20 -69 94 -76 121 -11 15 37 19 101 7 108 -9 6 -6 667 3 667 2
0 16 -7 29 -16z m-582 -133 c17 -6 18 -23 17 -229 0 -122 -5 -233 -10 -246 -8
-23 -10 -23 -219 -29 -208 -5 -274 1 -284 26 -6 15 20 116 80 315 37 121 51
156 67 162 25 11 324 11 349 1z m947 -251 l0 -260 -67 0 c-38 0 -75 5 -83 10
-13 8 -15 50 -18 260 l-3 250 86 0 85 0 0 -260z m871 79 c-4 -223 0 -233 122
-297 l58 -30 -108 -5 c-59 -2 -157 -4 -218 -3 l-110 1 1 33 c0 17 1 131 2 252
l2 219 63 4 c34 2 91 3 127 3 l65 -1 -4 -176z m1709 1 l0 -170 -37 -2 c-21 -1
-56 -3 -78 -5 -77 -6 -1369 -4 -1397 2 l-28 7 0 163 c0 162 0 164 23 168 12 2
358 5 770 6 l747 1 0 -170z m550 161 c0 -6 -9 -25 -20 -43 -53 -91 -73 -168
-78 -309 l-4 -136 -96 -7 c-52 -4 -153 -4 -225 0 l-130 7 49 25 c129 65 134
77 134 295 l0 177 185 0 c109 0 185 -4 185 -9z m1748 -3 c5 -7 28 -74 50 -148
75 -249 85 -303 60 -328 -9 -9 -93 -12 -315 -12 l-303 0 0 89 c0 49 -7 122
-15 161 -13 61 -28 103 -82 238 -4 9 59 12 295 12 228 0 302 -3 310 -12z
m-4910 -618 l32 0 0 -259 0 -260 -43 -6 c-67 -10 -374 -2 -386 10 -7 7 -8 51
-3 130 l7 120 59 39 c82 53 136 110 171 179 l30 59 50 -6 c28 -3 65 -6 83 -6z
m-874 -48 c29 -58 114 -139 188 -181 31 -18 58 -37 61 -44 7 -19 -13 -221 -23
-231 -5 -5 -53 -13 -107 -17 -135 -11 -695 -11 -712 0 -12 8 -13 37 -8 163 6
144 21 301 33 341 5 16 27 17 275 17 l269 0 24 -48z m3991 -13 c81 -150 174
-238 332 -315 62 -30 117 -63 123 -74 14 -27 -3 -58 -38 -67 -35 -10 -3138
-10 -3148 -1 -11 12 16 38 88 85 78 50 154 134 168 183 6 19 10 83 10 143 l0
107 1218 -2 1217 -3 30 -56z m1960 49 c7 -20 35 -362 35 -427 0 -40 -5 -63
-15 -71 -11 -9 -78 -14 -233 -18 l-218 -5 -34 54 c-19 29 -54 67 -77 84 -24
18 -54 53 -73 87 -50 93 -104 93 -170 0 -22 -31 -56 -68 -75 -82 -20 -14 -52
-51 -72 -84 l-37 -58 -104 4 c-78 4 -107 9 -120 21 -24 25 -5 68 38 89 19 9
70 33 112 53 108 50 237 177 294 287 l39 78 353 0 c273 0 354 -3 357 -12z
m-5580 -490 c14 -29 25 -70 25 -90 0 -38 0 -38 -40 -38 -34 0 -42 4 -50 26
-13 33 -13 69 1 117 14 52 35 47 64 -15z m5043 -115 c17 -31 15 -129 -4 -168
-23 -50 -87 -90 -143 -90 -139 0 -211 133 -147 270 13 28 48 73 79 102 l56 53
74 -73 c40 -39 79 -82 85 -94z m-781 135 c6 -7 13 -43 15 -79 l6 -67 -30 -6
c-17 -3 -43 -6 -59 -6 -28 0 -29 1 -29 54 0 29 3 68 6 85 6 28 10 31 44 31 21
0 42 -6 47 -12z m-3742 -442 l0 -274 -44 -6 c-81 -11 -248 -7 -259 7 -5 6 -12
100 -14 212 -5 206 -13 251 -55 297 -22 25 -11 27 132 31 66 1 147 4 180 5
l60 2 0 -274z m5070 254 c17 -19 18 -27 6 -113 -7 -50 -19 -139 -27 -197 -16
-122 -33 -200 -47 -217 -7 -10 -68 -13 -245 -13 -231 0 -236 0 -288 25 -83 39
-104 41 -170 9 -56 -26 -66 -28 -201 -28 -79 0 -146 4 -150 8 -5 4 -8 94 -9
199 0 106 -1 202 -2 215 -1 13 -24 45 -54 73 l-51 49 116 0 117 0 0 -63 c0
-139 112 -263 267 -296 155 -32 324 115 340 298 l6 60 121 4 c66 1 151 4 187
5 55 2 69 -1 84 -18z m-5779 -4 c3 -7 -5 -31 -18 -52 -22 -37 -23 -51 -26
-256 -3 -212 -4 -216 -25 -222 -36 -9 -615 -7 -621 3 -6 10 -46 232 -73 402
-9 58 -13 113 -10 123 6 14 43 16 387 16 311 0 382 -2 386 -14z m4249 4 c3 -5
-4 -20 -15 -32 -49 -51 -53 -72 -58 -290 l-5 -208 -31 -5 c-49 -10 -763 -1
-773 9 -4 5 -2 11 5 13 27 10 42 36 42 73 0 32 -19 70 -35 70 -2 0 -1 -27 2
-60 5 -47 3 -60 -8 -61 -8 0 -72 -1 -144 -2 l-130 -2 -3 -47 -3 -48 95 0 96 0
0 -54 c0 -52 -1 -54 -31 -60 -17 -3 -57 -6 -89 -6 -52 0 -58 -2 -62 -22 -10
-56 -5 -58 113 -58 61 0 119 -5 129 -10 23 -12 38 -76 22 -92 -8 -8 -72 -10
-194 -9 -101 1 -184 4 -185 5 -2 2 -8 215 -13 436 -1 74 -10 76 -25 7 l-6 -28
-87 3 -87 3 -5 35 c-7 45 -20 -173 -20 -337 l0 -123 -49 0 c-60 0 -64 9 -59
113 l3 72 -60 5 c-33 3 -79 3 -102 1 l-43 -3 0 -95 0 -94 -52 3 -53 3 -5 242
c-3 133 -8 245 -12 249 -5 4 -8 -5 -8 -20 0 -62 -35 -78 -128 -60 -27 5 -31
11 -37 48 -13 81 -4 76 -128 74 l-112 -2 108 -3 107 -4 0 -54 0 -55 -49 0
c-27 0 -63 -3 -80 -6 l-31 -6 0 -198 0 -198 -27 -5 c-16 -3 -40 -3 -55 0 l-28
6 0 203 0 204 -61 0 c-80 0 -99 11 -100 58 -1 37 -1 37 -9 7 -5 -21 -1 -40 12
-64 12 -22 16 -37 9 -44 -5 -5 -111 -10 -253 -11 l-243 -1 -5 215 c-5 236 -10
255 -71 296 -25 16 -26 20 -11 26 28 11 3130 9 3137 -2z m-3282 -42 c98 -52
96 -45 96 -379 0 -159 3 -315 7 -348 3 -33 3 -90 -1 -126 -6 -58 -12 -72 -43
-107 -33 -37 -40 -40 -75 -35 -40 5 -71 27 -90 62 -11 21 -13 912 -1 947 8 26
38 22 107 -14z m-726 -65 c17 -22 20 -60 34 -413 18 -479 19 -453 -15 -489
-16 -16 -42 -33 -57 -36 -41 -9 -93 25 -118 78 -20 42 -21 50 -11 303 5 142
11 318 13 389 3 137 12 169 50 185 29 12 89 3 104 -17z m4232 -18 c16 -8 31
-25 35 -37 3 -13 6 -113 7 -223 0 -183 6 -295 25 -506 7 -75 6 -76 -25 -112
-41 -46 -86 -56 -137 -31 -56 28 -76 61 -76 125 1 30 4 215 7 411 l7 356 27
11 c61 23 94 25 130 6z m376 -552 c-10 -3 -30 -12 -42 -20 -13 -9 -27 -13 -31
-9 -3 4 0 11 8 16 11 7 11 10 2 10 -7 0 -15 -7 -18 -15 -4 -10 -11 -12 -18 -7
-19 15 -56 21 -62 10 -4 -6 0 -14 7 -19 10 -6 11 -9 2 -9 -8 0 -13 -13 -13
-31 0 -17 -4 -28 -10 -24 -15 9 -12 92 3 98 6 3 53 5 102 5 50 0 81 -3 70 -5z
m310 -24 c50 -44 65 -78 65 -147 0 -53 -3 -61 -32 -89 -64 -60 -105 -65 -173
-23 -59 37 -84 135 -51 199 25 48 82 91 121 91 24 0 45 -9 70 -31z m-4738 -16
c-3 -10 -5 -4 -5 12 0 17 2 24 5 18 2 -7 2 -21 0 -30z m4412 -15 c-7 -13 -16
-39 -20 -58 l-7 -35 -2 35 c-2 33 -3 33 -10 10 -7 -22 -8 -20 -9 14 -1 34 1
38 19 33 13 -3 20 0 20 9 0 8 5 14 10 14 7 0 6 -8 -1 -22z m-22 -130 c-3 -8
-6 -5 -6 6 -1 11 2 17 5 13 3 -3 4 -12 1 -19z m-4097 -34 c0 -8 -4 -12 -10 -9
-5 3 -10 10 -10 16 0 5 5 9 10 9 6 0 10 -7 10 -16z m4097 -16 c-3 -8 -6 -5 -6
6 -1 11 2 17 5 13 3 -3 4 -12 1 -19z m-4100 -45 c-3 -10 -5 -4 -5 12 0 17 2
24 5 18 2 -7 2 -21 0 -30z m416 -144 c-44 -52 -88 -90 -91 -81 -3 11 112 130
116 120 2 -4 -9 -21 -25 -39z m-776 -12 c-6 -15 -18 -27 -25 -27 -8 0 -5 10 9
30 27 35 34 34 16 -3z m4623 13 c19 -11 28 -19 20 -20 -8 0 -28 9 -45 20 -38
25 -21 25 25 0z m-387 -30 c-9 -16 -24 -30 -32 -30 -10 0 -5 10 14 30 16 17
30 30 32 30 2 0 -4 -13 -14 -30z m-268 -38 c30 -16 35 -21 19 -22 -12 0 -35 7
-50 15 -16 8 -24 15 -19 15 6 0 2 5 -7 11 -10 5 -18 15 -18 21 0 6 7 5 18 -4
9 -9 35 -25 57 -36z m-4024 4 c-9 -11 -9 -15 1 -19 7 -3 0 -6 -16 -6 l-29 -1
23 20 c27 23 38 26 21 6z m579 -17 c0 -5 -6 -9 -14 -9 -7 0 -29 -2 -47 -5
l-34 -5 33 10 c17 6 32 15 32 20 0 5 7 7 15 4 8 -4 15 -10 15 -15z m3660 11
c0 -5 -5 -10 -11 -10 -5 0 -7 5 -4 10 3 6 8 10 11 10 2 0 4 -4 4 -10z m-5045
-340 c264 -8 317 -15 395 -55 208 -106 285 -390 159 -586 -35 -55 -106 -124
-138 -134 -18 -5 -21 -12 -17 -31 10 -39 211 -366 267 -434 16 -19 29 -38 29
-42 0 -5 -67 -8 -150 -8 -144 0 -150 1 -163 23 -64 103 -229 384 -239 406 -2
3 -47 5 -100 3 l-98 -3 0 -163 c0 -142 2 -167 20 -201 23 -45 25 -65 8 -66 -7
0 -69 -1 -137 -2 -135 -2 -167 6 -143 40 31 46 33 71 30 618 l-3 552 -29 38
c-28 37 -29 38 -10 52 12 9 29 12 44 8 14 -4 138 -11 275 -15z m1055 0 c186
-9 505 -3 531 11 8 4 22 4 30 -1 11 -8 13 -34 10 -137 -1 -70 -4 -129 -6 -131
-2 -2 -12 1 -23 7 -11 6 -123 11 -270 13 l-252 3 0 -150 0 -150 102 2 c353 9
328 10 334 -12 10 -40 -1 -230 -13 -228 -43 8 -292 15 -353 9 l-75 -7 3 -140
3 -140 252 4 c139 2 261 5 272 8 19 4 21 -3 27 -96 5 -55 9 -113 10 -130 3
-25 0 -30 -19 -29 -13 0 -199 1 -413 2 -433 2 -423 1 -385 66 18 29 19 68 22
586 l4 556 -27 39 c-25 37 -25 39 -7 52 10 9 28 12 43 8 14 -4 104 -10 200
-15z m2137 6 c106 7 124 -4 79 -49 l-26 -26 0 -538 c0 -322 4 -552 10 -572 5
-19 21 -47 35 -61 42 -43 20 -51 -149 -51 -80 0 -150 2 -156 6 -17 10 -11 41
10 60 20 18 21 27 18 586 l-3 568 -27 28 c-16 16 -28 32 -28 36 0 16 45 23 94
15 28 -5 93 -6 143 -2z m598 -5 c210 -7 248 -11 304 -30 168 -58 268 -175 293
-341 21 -141 -18 -262 -120 -371 -107 -114 -200 -149 -399 -149 l-123 0 0
-159 0 -160 31 -29 c24 -23 28 -31 17 -39 -15 -13 -297 -21 -315 -10 -19 12
-16 35 7 64 19 25 20 41 20 587 0 548 -1 562 -21 595 -28 47 -19 65 29 56 20
-3 145 -10 277 -14z m1216 4 l356 0 -5 -130 c-2 -71 -6 -131 -7 -133 -1 -1
-15 2 -30 8 -15 6 -135 13 -266 16 l-239 5 0 -151 0 -152 218 3 217 3 3 -133
3 -132 -23 13 c-16 9 -83 14 -220 16 l-198 4 0 -140 0 -139 137 -6 c225 -11
311 -9 349 9 19 9 37 14 41 11 3 -4 9 -51 12 -106 6 -77 12 -105 26 -121 12
-13 15 -24 9 -30 -6 -6 -170 -10 -418 -11 -357 -2 -410 0 -423 14 -14 14 -14
18 6 43 21 27 21 30 21 595 l0 567 -26 31 c-41 49 -27 65 44 55 31 -5 217 -9
413 -9z m-2461 -17 c82 -20 176 -74 254 -146 l47 -43 -64 -69 c-35 -38 -71
-83 -79 -100 l-15 -31 -20 38 c-16 30 -35 46 -98 78 -75 39 -80 40 -179 40
-90 0 -107 -3 -158 -28 -85 -42 -152 -107 -190 -185 -31 -63 -33 -73 -33 -177
0 -106 2 -114 34 -180 65 -132 178 -214 307 -223 119 -8 263 46 305 114 l23
38 55 -61 c31 -33 75 -74 98 -90 l42 -30 -32 -30 c-158 -148 -291 -200 -490
-191 -170 8 -285 64 -422 203 -131 132 -176 246 -176 443 0 150 27 264 82 348
47 73 146 170 209 206 60 34 182 77 250 88 63 10 184 4 250 -12z m3543 7 c123
-26 286 -124 262 -157 -5 -8 -31 -46 -57 -84 -67 -100 -69 -102 -115 -65 -54
43 -161 81 -229 81 -104 0 -154 -39 -154 -121 0 -83 37 -111 238 -181 161 -55
217 -84 267 -140 60 -67 78 -127 73 -242 -3 -80 -8 -99 -38 -154 -43 -82 -131
-163 -207 -193 -42 -16 -87 -23 -160 -27 -124 -5 -219 13 -316 62 -76 39 -167
104 -167 121 0 6 40 54 88 105 l88 94 42 -46 c59 -63 138 -93 249 -93 67 0 87
4 110 21 64 47 78 131 31 181 -31 34 -58 46 -202 97 -244 85 -318 156 -347
332 -32 200 67 356 262 408 70 19 196 19 282 1z"/>
<path d="M5647 7369 c-131 -162 -314 -229 -500 -184 -123 30 -217 89 -290 184
-39 51 -43 53 -80 48 -42 -6 -87 -40 -87 -66 0 -9 14 -41 32 -71 94 -164 306
-280 514 -282 169 0 338 74 469 206 80 82 116 146 95 172 -14 16 -83 55 -97
53 -4 0 -30 -27 -56 -60z"/>
<path d="M7045 6520 c-52 -11 -127 -45 -192 -86 -119 -76 -200 -274 -173 -422
15 -87 72 -193 130 -245 66 -59 119 -84 221 -104 103 -19 190 -8 277 36 131
67 185 129 224 255 17 57 20 84 15 155 -8 105 -23 152 -76 230 -78 114 -188
180 -314 186 -39 2 -90 0 -112 -5z m190 -149 c60 -27 160 -124 180 -173 34
-87 29 -230 -12 -310 -15 -32 -58 -46 -84 -29 -29 17 -39 13 -51 -20 -11 -31
-41 -49 -84 -49 -19 0 -24 5 -24 24 0 26 -13 40 -46 50 -27 8 -40 -27 -17 -49
27 -27 4 -38 -68 -32 -76 6 -140 35 -165 72 -33 50 -64 155 -64 214 0 82 34
188 73 224 91 85 264 123 362 78z"/>
<path d="M7077 6252 c-10 -10 -17 -33 -17 -51 0 -67 100 -65 108 3 7 55 -56
87 -91 48z"/>
<path d="M6907 6223 c-11 -11 -8 -48 5 -61 13 -13 47 -16 72 -6 26 10 20 53
-10 64 -29 12 -58 13 -67 3z"/>
<path d="M7242 6218 c-17 -17 -15 -32 7 -52 37 -34 100 1 75 42 -13 21 -64 28
-82 10z"/>
<path d="M6914 6047 c-10 -26 7 -37 36 -24 23 9 23 10 5 15 -11 2 -23 9 -27
15 -4 8 -9 5 -14 -6z"/>
<path d="M7068 6035 c-8 -19 -8 -28 2 -40 23 -28 90 -11 90 23 0 46 -72 60
-92 17z"/>
<path d="M6947 5893 c-10 -9 -9 -43 1 -43 12 0 32 23 32 37 0 14 -22 18 -33 6z"/>
<path d="M5136 4713 c-3 -42 -6 -91 -6 -109 l0 -33 100 -3 100 -3 0 103 0 102
-22 -14 c-30 -19 -135 -7 -153 17 -10 14 -13 3 -19 -60z"/>
<path d="M3612 5028 c-18 -18 -14 -73 6 -91 39 -35 81 -10 82 49 0 37 -16 54
-50 54 -14 0 -31 -5 -38 -12z"/>
<path d="M3609 4693 c-15 -39 7 -77 46 -81 34 -4 55 18 55 58 0 35 -17 50 -57
50 -27 0 -35 -5 -44 -27z"/>
<path d="M3628 4343 c-30 -34 -31 -61 -4 -88 31 -31 41 -31 71 0 37 36 32 70
-12 94 -29 15 -37 14 -55 -6z"/>
<path d="M2839 4329 c-47 -47 1 -124 64 -100 23 9 27 16 27 50 0 30 -6 44 -22
55 -30 21 -44 20 -69 -5z"/>
<path d="M7081 4326 c-7 -8 -16 -28 -21 -46 -7 -25 -5 -35 11 -51 40 -40 109
-13 109 42 0 56 -67 93 -99 55z"/>
<path d="M2128 3217 l3 -200 138 6 c176 7 220 26 265 114 34 68 10 173 -53
226 -43 35 -83 44 -231 50 l-125 5 3 -201z"/>
<path d="M5930 3201 l0 -221 80 0 c159 0 241 38 286 133 56 121 12 240 -103
281 -23 8 -92 18 -153 22 l-110 7 0 -222z"/>
</g>
</svg>
